<svg id="Layer_1" data-name="Layer 1" xmlns="http://www.w3.org/2000/svg" viewBox="0 0 100 100"><defs><style>.cls-1{fill:#ce9461;}</style></defs><path class="cls-1" d="M77.24,4.64C74.81,1.93,71.27.5,67,.5,58.41.5,46.68,6.18,36.38,15.32a65.57,65.57,0,0,0-12.1,14c-3.32,5.35-5,10.36-5,14.9,0,5,2.78,8.72,8.49,11.29C32.5,57.66,38.84,58.83,45,60s12.76,2.36,17.48,4.56c5,2.32,7.31,5.43,7.31,9.77,0,5.18-3.07,10.63-8.43,15-5,4-11.37,6.53-16.62,6.53-5.42,0-8.23-2.39-8.34-7.11A3.42,3.42,0,0,1,37,86.82h0l0-.06,0,0a7.12,7.12,0,0,1,1-.84C40.57,84.31,42,82.25,42,80.1A3.62,3.62,0,0,0,40.52,77a3.91,3.91,0,0,0-1.72-.7,6.21,6.21,0,0,0-1.08-.09h-.24l.42-.38a8.6,8.6,0,0,0,.68-11.35,1.51,1.51,0,0,0,.74-1.76l-.43-1.46a1.5,1.5,0,0,0-1.45-1.09,1.56,1.56,0,0,0-.64.13l-2.87,1.33a9.1,9.1,0,0,0-2.24-.27,8.83,8.83,0,0,0-6.19,2.38A8.57,8.57,0,0,0,26,76.3c-1.72,1-3.18,2.34-3.18,3.93a2.6,2.6,0,0,0,1.07,2.2,3.1,3.1,0,0,0,1.84.52,18.49,18.49,0,0,0,5.36-1.4,20.91,20.91,0,0,1,5.51-1.49h.24a.79.79,0,0,1,.23.05,1.18,1.18,0,0,1,0,.37,3.15,3.15,0,0,1-1.44,2.42l0,0,0,0,0,0c-.13.1-.42.31-.65.5l-.07.06-.07.06a2.77,2.77,0,0,0-.25.24,8.11,8.11,0,0,0-2.23,6.1v.12a9.34,9.34,0,0,0,3.83,7.22,13.16,13.16,0,0,0,7.74,2.22,31.41,31.41,0,0,0,7.05-.8c8.86-2.12,19.67-9.89,22.32-20.11a11.13,11.13,0,0,0,.63-3.65c0-6.36-3.11-10.95-9.52-14C59,58.32,52,57.13,45.32,56c-6-1-11.61-2-15.76-3.83-4.33-1.9-6.26-4.37-6.26-8,0-6.12,5.45-14.44,10.12-19.71C41.33,15.49,54.82,5,66.86,5c5.85,0,8.7,3.24,8.7,9.91a22.7,22.7,0,0,1-1,6.71v0l0,.17a5.74,5.74,0,0,0-.3,1.68,2.28,2.28,0,0,0,2.45,2.36c2.6,0,3.29-3.79,3.55-5.22A36.18,36.18,0,0,0,80.73,15,15.26,15.26,0,0,0,77.24,4.64Zm-45.55,70c-2.3,0-3.85-1.93-3.85-4.8S29.39,65,31.69,65s3.87,1.93,3.87,4.79S34,74.6,31.69,74.6Z"/></svg>